<?xml version="1.0" encoding="utf-8"?>
<!-- Generator: Adobe Illustrator 16.0.0, SVG Export Plug-In . SVG Version: 6.00 Build 0)  -->
<!DOCTYPE svg PUBLIC "-//W3C//DTD SVG 1.1//EN" "http://www.w3.org/Graphics/SVG/1.1/DTD/svg11.dtd">
<svg version="1.1" id="Layer_1" xmlns="http://www.w3.org/2000/svg" xmlns:xlink="http://www.w3.org/1999/xlink" x="0px" y="0px"
	 width="108px" height="51px" viewBox="0 0 108 51" enable-background="new 0 0 108 51" xml:space="preserve">
<path id="Line-Copy-5" fill="#EF6435" d="M49,45h54v-2H49V45L49,45z"/>
<path id="Line-Copy-6" fill="#EF6435" d="M10,45h13v-2H10V45L10,45z"/>
<path fill="#0650C2" d="M47.003,5H22v43h28v-4.48V43h-2v3H24V7h23.003C47.558,7,48,7.442,48,8.007V22h2v-0.472V8.007
	C50,6.334,48.658,5,47.003,5z"/>
<title>Catalog</title>
<desc>Created with Sketch.</desc>
<path fill="#0650C2" d="M72,31.332c-0.425,0-0.819-0.272-0.954-0.699c-0.166-0.527,0.127-1.089,0.653-1.255
	c3.494-1.1,3.792-4.562,4.019-10.587l0.031-0.82c0.021-0.536,0.461-0.96,0.998-0.961L84.782,17h0.001
	c0.265,0,0.52,0.105,0.707,0.292s0.293,0.442,0.293,0.708v12.332c0,0.553-0.447,1-1,1s-1-0.447-1-1V19.001l-6.072,0.007
	c-0.217,5.757-0.443,10.713-5.41,12.278C72.2,31.317,72.1,31.332,72,31.332z"/>
<rect id="Rectangle-507" x="69" y="38" fill="#EF6435" width="16" height="2"/>
<rect id="Rectangle-507-Copy" x="69" y="34" fill="#EF6435" width="22" height="2"/>
<path id="Line" fill="#0650C2" d="M27,6.5v39.013v1h2v-1V6.5v-1h-2V6.5L27,6.5z"/>
<path id="Line_1_" fill="#0650C2" d="M33,15h11h1v-2h-1H33h-1v2H33L33,15z"/>
<path id="Line-Copy-9" fill="#0650C2" d="M34,19h9h1v-2h-1h-9h-1v2H34L34,19z"/>
<path id="Oval-78" fill="#EF6435" d="M53.5,45C60.403,45,66,39.403,66,32.5S60.403,20,53.5,20S41,25.597,41,32.5S46.597,45,53.5,45
	L53.5,45z M53.5,43C47.701,43,43,38.299,43,32.5S47.701,22,53.5,22S64,26.701,64,32.5S59.299,43,53.5,43L53.5,43z"/>
<path id="Oval-78-Copy" fill="#EF6435" d="M53.5,37c2.485,0,4.5-2.015,4.5-4.5S55.985,28,53.5,28S49,30.015,49,32.5
	S51.015,37,53.5,37L53.5,37z M53.5,35c-1.381,0-2.5-1.119-2.5-2.5s1.119-2.5,2.5-2.5s2.5,1.119,2.5,2.5S54.881,35,53.5,35L53.5,35z"
	/>
<path id="Shape" fill="#EF6435" d="M53.5,38c-3.038,0-5.5-2.463-5.5-5.5h-2c0,4.143,3.358,7.5,7.5,7.5V38L53.5,38z M53.5,27
	c3.037,0,5.5,2.463,5.5,5.5h2c0-4.143-3.357-7.5-7.5-7.5V27L53.5,27z"/>
</svg>
