<?xml version="1.0" encoding="UTF-8" standalone="no"?>
<svg width="108px" height="51px" viewBox="0 0 108 51" version="1.1" xmlns="http://www.w3.org/2000/svg" xmlns:xlink="http://www.w3.org/1999/xlink">
    <!-- Generator: Sketch 3.6.1 (26313) - http://www.bohemiancoding.com/sketch -->
    <title>Self</title>
    <desc>Created with Sketch.</desc>
    <defs></defs>
    <g id="Page-1" stroke="none" stroke-width="1" fill="none" fill-rule="evenodd">
        <g id="Icons" transform="translate(-563.000000, -61.000000)">
            <path d="M620,103 L665,103 L665,101 L620,101 L620,103 L620,103 Z" id="Line-Copy-3" fill="#EF6435"></path>
            <path d="M572,103 L612,103 L612,101 L572,101 L572,103 L572,103 Z" id="Line-Copy-8" fill="#EF6435"></path>
            <path d="M630.333185,86.7090721 C630.332097,86.7090105 624.650054,91.525241 625.816867,92.9316431 C627.210288,94.8798875 628.171913,97.0239094 629.038254,100.229557 C629.193274,100.803165 629.293263,101.392856 629.335562,102.005275 L629.399873,102.936369 L630.333186,102.936369 L634.597156,102.936369 L635.530469,102.936369 L635.59478,102.005275 C635.84619,98.3653113 636.846855,96.0980883 639.156627,92.8757235 C640.280432,91.5250674 640.930711,89.7582518 640.930711,87.8941321 C640.930711,83.534547 637.394564,80 633.033089,80 C632.924791,80 632.841957,80.0041806 632.687245,80.0148505 C632.649966,80.0203558 630.360281,86.7105254 630.333185,86.7090721 Z M632.696455,82.0185495 C632.759504,82.0146263 632.759504,82.0146263 632.815701,82.0107425 C632.935173,82.0025026 632.984758,82 633.033089,82 C636.290197,82 638.930711,84.6393192 638.930711,87.8941321 C638.930711,89.2872808 638.44625,90.603568 637.574243,91.6546291 C635.024212,95.2078979 633.880529,97.7991584 633.599533,101.867464 L634.597156,100.936369 L630.333186,100.936369 L630.333186,101.936369 L631.330809,101.867464 C631.279474,101.124235 631.15769,100.406005 630.968988,99.7077671 C630.043485,96.2832044 628.984522,93.9221623 627.399251,91.7105487 C626.484284,90.6037991 629.870808,89.0421265 630.333186,87.8941321 C631.330809,85.417227 631.995131,82.0024941 632.102524,82.0099016 C632.170808,82.0146234 632.170808,82.0146234 632.233887,82.0185495 C632.323978,82.0198816 632.323978,82.0198816 632.340259,82.0194241 C632.388959,82.0175358 632.388959,82.0175358 632.419952,82.0158908 C632.453236,82.0142918 632.461868,82.0140072 632.478816,82.0140072 C632.553538,82.0182258 632.553538,82.0182258 632.624068,82.0201799 L632.696455,82.0185495 Z" id="Imported-Layers-Copy" fill="#EF6435"></path>
            <path d="M601.61678,71.0290824 C601.606268,71.0289385 601.599818,71.0286484 601.557533,71.0263427 C601.484191,71.0220695 601.43556,71.0200286 601.37582,71.0200286 C601.302918,71.0200286 601.245977,71.0219056 601.16827,71.0258565 C601.125197,71.0280754 601.125197,71.0280754 601.103691,71.0289014 C601.098718,71.0263896 601.098718,71.0263896 601.0226,71.0211348 C600.797919,71.0056359 600.685404,71 600.544259,71 C594.545353,71 589.682056,75.8614551 589.682056,81.85774 C589.682056,84.4222522 590.575921,86.8517161 592.18091,88.7862683 C594.223838,91.6406391 595.619762,94.7529659 596.871237,99.3836907 C597.100135,100.230665 597.247791,101.101477 597.310216,102.005275 L597.374527,102.936369 L598.307839,102.936369 L604.40478,102.936369 L605.338093,102.936369 L605.402404,102.005275 C605.768248,96.7085193 606.136888,95.5740891 607.47566,94.2353172 C609.037713,92.356424 601.08693,87.2791891 601.004974,84.7179804 C600.544259,70.3200808 601.915102,71.0056171 601.703425,71.0202157 C601.613966,71.0263867 601.613966,71.0263867 601.544394,71.0307128 L601.61678,71.0290824 Z M605.515649,93.2342169 C604.290213,95.8573152 603.639665,98.5011765 603.407157,101.867464 L604.40478,100.936369 L598.307839,100.936369 L599.305463,101.867464 C599.234003,100.832856 599.064552,99.8335053 598.801971,98.861901 C597.491334,94.012261 595.998073,90.682914 593.763294,87.5651738 C592.410151,85.9302742 591.682056,83.9513613 591.682056,81.85774 C591.682056,77.0826423 595.463092,73.1893627 600.19632,73.0067022 C599.425182,74.8934418 599,76.9594027 599,79.1249143 C599,82.9329194 600.320413,86.5394139 602.692313,89.4124564 C603.121311,90.0172056 604.618935,92.0243552 605.515649,93.2342169 Z" id="Combined-Shape" fill="#EF6435"></path>
            <path d="M616.687849,63.0445726 C616.6621,63.0442183 616.643934,63.0433972 616.575074,63.0395817 C616.572658,63.0394444 616.572658,63.0394444 616.570215,63.0393055 C616.459853,63.0330301 616.405318,63.0307302 616.327099,63.0307302 C616.226245,63.0307302 616.147286,63.0333459 616.036713,63.0389955 C615.970682,63.0424288 615.970682,63.0424288 615.927511,63.0441006 C615.916494,63.04441 615.916494,63.04441 615.906867,63.0445713 C615.917799,63.0425723 615.868948,63.0393073 615.751831,63.0311798 C615.738451,63.0302507 615.738451,63.0302507 615.724985,63.0293167 C615.420346,63.0082006 615.257434,63 615.057482,63 C606.188218,63 599,70.220943 599,79.1249143 C599,82.9329194 600.320413,86.5394139 602.692313,89.4124564 C603.24902,90.1972345 605.605298,93.3436601 606.112679,94.0447156 C609.171122,98.2706077 611.019517,101.704908 612.140894,105.874712 C612.499398,107.2078 612.73068,108.578533 612.828413,110.000499 C612.864457,110.524934 613.300387,110.93193 613.826059,110.93193 L618.768563,110.93193 C619.294235,110.93193 619.730165,110.524934 619.766209,110.000499 C620.169572,104.131751 622.223555,99.700014 626.354085,94.132251 C626.637844,93.7497564 629.253033,90.3270142 629.945274,89.3565049 C632.274552,86.5389987 633.595427,82.9324604 633.595427,79.1249143 C633.595427,70.2210808 626.40654,63 617.53714,63 C617.336039,63 617.174791,63.0081784 616.863188,63.0297745 C616.853064,63.0304764 616.853064,63.0304764 616.842988,63.0311755 C616.725749,63.0393044 616.676833,63.0425717 616.615106,63.046219 L616.687849,63.0445726 Z M616.733074,65.0427368 C616.803885,65.0385528 616.86074,65.0347553 616.981411,65.0263795 C616.991465,65.025682 616.991465,65.025682 617.001469,65.0249883 C617.268465,65.0064838 617.396302,65 617.53714,65 C625.299965,65 631.595427,71.3236548 631.595427,79.1249143 C631.595427,82.4634319 630.439037,85.6208582 628.359994,88.1391664 C627.647644,89.1335846 625.04901,92.5346595 624.747835,92.9406299 C620.410188,98.7875764 618.205167,103.545197 617.770917,109.863361 L618.768563,108.93193 L613.826059,108.93193 L614.823705,109.863361 C614.717024,108.311197 614.464151,106.812503 614.072272,105.355311 C612.877256,100.911681 610.921475,97.2778574 607.73287,92.8721199 C607.211113,92.1512009 604.860438,89.0122569 604.277593,88.1951179 C602.155975,85.6213309 601,82.4639706 601,79.1249143 C601,71.323484 607.294827,65 615.057482,65 C615.197559,65 615.326295,65.0064803 615.586686,65.0245294 C615.599941,65.0254487 615.599941,65.0254487 615.613282,65.0263751 C615.733869,65.0347524 615.790697,65.0385505 615.861548,65.0427368 C615.962249,65.0439106 615.962249,65.0439106 615.988729,65.0431635 C616.071708,65.0399341 616.071708,65.0399341 616.138768,65.03639 C616.218267,65.0323281 616.266502,65.0307302 616.327099,65.0307302 C616.355288,65.0307302 616.383554,65.0319223 616.456675,65.0360801 C616.45913,65.0362196 616.45913,65.0362196 616.461612,65.0363607 C616.547031,65.0412462 616.597229,65.043515 616.660332,65.0443833 L616.733074,65.0427368 Z" id="Imported-Layers" fill="#0650C2"></path>
            <path d="M616.687849,63.0445726 C616.6621,63.0442183 616.643934,63.0433972 616.575074,63.0395817 C616.572658,63.0394444 616.572658,63.0394444 616.570215,63.0393055 C616.459853,63.0330301 616.405318,63.0307302 616.327099,63.0307302 C616.226245,63.0307302 616.147286,63.0333459 616.036713,63.0389955 C615.970682,63.0424288 615.970682,63.0424288 615.927511,63.0441006 C615.916494,63.04441 615.916494,63.04441 615.906867,63.0445713 C615.917799,63.0425723 615.868948,63.0393073 615.751831,63.0311798 C615.738451,63.0302507 615.738451,63.0302507 615.724985,63.0293167 C615.420346,63.0082006 615.257434,63 615.057482,63 C606.188218,63 599,70.220943 599,79.1249143 C599,82.9329194 600.320413,86.5394139 602.692313,89.4124564 C603.24902,90.1972345 605.605298,93.3436601 606.112679,94.0447156 C609.171122,98.2706077 611.019517,101.704908 612.140894,105.874712 C612.499398,107.2078 612.73068,108.578533 612.828413,110.000499 C612.864457,110.524934 613.300387,110.93193 613.826059,110.93193 L618.768563,110.93193 C619.294235,110.93193 619.730165,110.524934 619.766209,110.000499 C620.169572,104.131751 622.223555,99.700014 626.354085,94.132251 C626.637844,93.7497564 629.253033,90.3270142 629.945274,89.3565049 C632.274552,86.5389987 633.595427,82.9324604 633.595427,79.1249143 C633.595427,70.2210808 626.40654,63 617.53714,63 C617.336039,63 617.174791,63.0081784 616.863188,63.0297745 C616.853064,63.0304764 616.853064,63.0304764 616.842988,63.0311755 C616.725749,63.0393044 616.676833,63.0425717 616.615106,63.046219 L616.687849,63.0445726 Z M616.733074,65.0427368 C616.803885,65.0385528 616.86074,65.0347553 616.981411,65.0263795 C616.991465,65.025682 616.991465,65.025682 617.001469,65.0249883 C617.268465,65.0064838 617.396302,65 617.53714,65 C625.299965,65 631.595427,71.3236548 631.595427,79.1249143 C631.595427,82.4634319 630.439037,85.6208582 628.359994,88.1391664 C627.647644,89.1335846 625.04901,92.5346595 624.747835,92.9406299 C620.410188,98.7875764 618.205167,103.545197 617.770917,109.863361 L618.768563,108.93193 L613.826059,108.93193 L614.823705,109.863361 C614.717024,108.311197 614.464151,106.812503 614.072272,105.355311 C612.877256,100.911681 610.921475,97.2778574 607.73287,92.8721199 C607.211113,92.1512009 604.860438,89.0122569 604.277593,88.1951179 C602.155975,85.6213309 601,82.4639706 601,79.1249143 C601,71.323484 607.294827,65 615.057482,65 C615.197559,65 615.326295,65.0064803 615.586686,65.0245294 C615.599941,65.0254487 615.599941,65.0254487 615.613282,65.0263751 C615.733869,65.0347524 615.790697,65.0385505 615.861548,65.0427368 C615.962249,65.0439106 615.962249,65.0439106 615.988729,65.0431635 C616.071708,65.0399341 616.071708,65.0399341 616.138768,65.03639 C616.218267,65.0323281 616.266502,65.0307302 616.327099,65.0307302 C616.355288,65.0307302 616.383554,65.0319223 616.456675,65.0360801 C616.45913,65.0362196 616.45913,65.0362196 616.461612,65.0363607 C616.547031,65.0412462 616.597229,65.043515 616.660332,65.0443833 L616.733074,65.0427368 Z" id="Imported-Layers-Copy-3" fill="#0650C2"></path>
            <path d="M610.645161,83.255814 C613.589699,82.2630641 614.216484,78.89902 614.37055,74.7040337 L620.225806,74.6976744 L620.225806,83.255814" id="Path-Copy-4" stroke="#0650C2" stroke-width="2" stroke-linecap="round" stroke-linejoin="round"></path>
            <path d="M610.645161,83.255814 C613.589699,82.2630641 614.216484,78.89902 614.37055,74.7040337 L620.225806,74.6976744 L620.225806,83.255814" id="Path-Copy-4" stroke="#0650C2" stroke-width="2" stroke-linecap="round" stroke-linejoin="round"></path>
        </g>
    </g>
</svg>