<?xml version="1.0" encoding="UTF-8" standalone="no"?>
<svg width="108px" height="51px" viewBox="0 0 108 51" version="1.1" xmlns="http://www.w3.org/2000/svg" xmlns:xlink="http://www.w3.org/1999/xlink">
    <!-- Generator: Sketch 3.6.1 (26313) - http://www.bohemiancoding.com/sketch -->
    <title>Gift</title>
    <desc>Created with Sketch.</desc>
    <defs></defs>
    <g id="Page-1" stroke="none" stroke-width="1" fill="none" fill-rule="evenodd">
        <g id="Icons" transform="translate(-815.000000, -61.000000)">
            <path d="M886,104 L914,104 L914,102 L886,102 L886,104 L886,104 Z" id="Line-Copy-4" fill="#EF6435"></path>
            <path d="M821,104 L850,104 L850,102 L821,102 L821,104 L821,104 Z" id="Line-Copy-10" fill="#EF6435" transform="translate(835.500000, 103.000000) scale(1, -1) translate(-835.500000, -103.000000) "></path>
            <path d="M886,82 L886,107 L852,107 L852,82 M850,82.3377879 L850,108.274157 L850,109.274157 L851,109.274157 L887,109.274157 L888,109.274157 L888,108.274157 L888,82.3377879" id="Path" fill="#EF6435"></path>
            <path d="M868.188393,91.9999994 L872,91.9999994 L872,99 C872,99.5522847 872.447715,100 873,100 C873.552285,100 874,99.5522847 874,99 L874,91 C874,90.4472931 873.551626,89.9994032 872.998919,90.0000006 L867.498527,90.0059451 C866.961014,90.006526 866.520113,90.4319143 866.500288,90.9690623 C866.338223,95.3602043 865.584526,97.4136221 863.681929,98.0519332 C863.158326,98.2275991 862.876267,98.7944685 863.051933,99.3180713 C863.227599,99.8416741 863.794468,100.123733 864.318071,99.9480668 C867.3028,98.9467064 867.99779,97.1643671 868.188393,91.9999994 Z" id="Path-Copy-5" fill="#0650C2"></path>
            <path d="M857,77.682695 L857,107.417961 L857,108.518513 L859,108.518513 L859,107.417961 L859,77.682695 L859,76.5821435 L857,76.5821435 L857,77.682695 L857,77.682695 Z" id="Line" fill="#EF6435"></path>
            <path d="M878,77.682695 L878,107.417961 L878,108.518513 L880,108.518513 L880,107.417961 L880,77.682695 L880,76.5821435 L878,76.5821435 L878,77.682695 L878,77.682695 Z" id="Line-Copy-7" fill="#EF6435"></path>
            <path d="M850,77.2741571 L850,81.2741571 L889,81.2741571 L889,77.2741571 L850,77.2741571 Z M891,75.2741571 L891,83.2741571 L848,83.2741571 L848,75.2741571 L891,75.2741571 Z" id="Path-Copy" fill="#EF6435"></path>
            <g id="Group-11" transform="translate(855.000000, 64.000000)" fill="#0650C2">
                <path d="M10.5130932,8.26515236 C9.73085648,5.66240513 8.9204976,3.76412696 8.38550683,3.22913619 C6.96733386,1.81096322 4.66802118,1.81096322 3.24984821,3.22913619 C1.83167524,4.64730916 1.83167524,6.94662185 3.24984821,8.36479482 C3.78483898,8.89978559 5.68311715,9.71014446 8.28586438,10.4923812 C9.62035734,10.8934534 10.0358729,11.015089 11.4754631,11.3528234 C11.8407768,11.4385276 10.9141654,9.59964532 10.5130932,8.26515236 Z M1.83563465,9.77900838 C-0.363586905,7.57978683 -0.363586905,4.01414418 1.83563465,1.81492263 C4.0348562,-0.384298922 7.60049884,-0.384298922 9.7997204,1.81492263 C11.9989419,4.01414418 14.010356,13.989644 14.010356,13.989644 C14.010356,13.989644 4.0348562,11.9782299 1.83563465,9.77900838 Z" id="Oval-83"></path>
                <path d="M19.5601263,10.4923812 C22.1628735,9.71014446 24.0611517,8.89978559 24.5961424,8.36479482 C26.0143154,6.94662185 26.0143154,4.64730916 24.5961424,3.22913619 C23.1779695,1.81096322 20.8786568,1.81096322 19.4604838,3.22913619 C18.9254931,3.76412696 18.1151342,5.66240513 17.3328974,8.26515236 C16.9318253,9.59964532 16.8417937,9.90059028 16.5040593,11.3401805 C17.9436495,11.0024461 18.2256333,10.8934534 19.5601263,10.4923812 Z M13.8356346,13.989644 C13.8356346,13.989644 15.8470487,4.01414418 18.0462703,1.81492263 C20.2454918,-0.384298922 23.8111345,-0.384298922 26.010356,1.81492263 C28.2095776,4.01414418 28.2095776,7.57978683 26.010356,9.77900838 C23.8111345,11.9782299 13.8356346,13.989644 13.8356346,13.989644 L13.8356346,13.989644 Z" id="Oval-83-Copy"></path>
            </g>
        </g>
    </g>
</svg>