<?xml version="1.0" encoding="UTF-8" standalone="no"?>
<svg width="108px" height="51px" viewBox="0 0 108 51" version="1.1" xmlns="http://www.w3.org/2000/svg" xmlns:xlink="http://www.w3.org/1999/xlink">
    <!-- Generator: Sketch 3.6.1 (26313) - http://www.bohemiancoding.com/sketch -->
    <title>Delivery</title>
    <desc>Created with Sketch.</desc>
    <defs></defs>
    <g id="Page-1" stroke="none" stroke-width="1" fill="none" fill-rule="evenodd">
        <g id="Icons" transform="translate(-313.000000, -61.000000)">
            <path d="M390,103 L413,103 L413,101 L390,101 L390,103 L390,103 Z" id="Line" fill="#EF6435"></path>
            <path d="M320,103 L342,103 L342,101 L320,101 L320,103 L320,103 Z" id="Line-Copy" fill="#EF6435" transform="translate(331.000000, 102.000000) scale(1, -1) translate(-331.000000, -102.000000) "></path>
            <path d="M342,75 L372,75 L372,93.3043478 L374,94.3043478 L374,74 L374,73 L373,73 L341,73 L340,73 L340,74 L340,95.3043478 L342,95.3043478 L342,75 Z" id="Rectangle-494-Copy" fill="#EF6435"></path>
            <path d="M374,82 L383.023945,82 L387.654294,97.9198266 L389.571502,97.3503417 L384.63024,80.7152576 L384.417781,80 L383.671636,80 L373,80 L372,80 L372,81 L372,93.5319996 L374,93.5319996 L374,82 Z" id="Rectangle-493" fill="#EF6435"></path>
            <path d="M347.31747,105 C347.351089,106.104116 347.480271,107 347,107 L340,107 L340,93 L383,93 C386.86074,93 390,96.1383563 390,100 L390,107 L383,107 C381.976267,107 382.650969,104.136704 381.624519,102.158642 C382.83913,103.520498 383.581934,105 384.333333,105 C385.962366,105 388,105 388,105 L388,100.384615 C388,97.2416831 385.802518,95 383.333333,95 L342,95 L342,105 L347.31747,105 Z M349.503029,101.064618 C350.138532,100.902503 350.95431,100.864825 352,101 C354.366938,101.179219 355.501057,101.897852 355.993693,102.778943 C355.65447,101.768137 354.841574,100.722387 352.555556,100.384615 C351.19366,100.298884 350.214417,100.591059 349.503029,101.064618 Z M356.316532,104.44133 C356.230046,105.783025 355.553393,107 356,107 L373,107 C373.689062,107 373.692409,105.755203 373.873905,104.334844 C373.744544,104.738488 373.608793,105 373.396553,105 L356.755667,105 C356.489208,105 356.384605,104.782724 356.316532,104.44133 Z M375.351613,100.908996 C376.050529,100.36574 377.08864,100.098997 378.653992,100.341519 C379.009877,100.372408 379.329555,100.432396 379.616909,100.517202 C379.164015,100.2785 378.664622,100.096814 378.110352,100 C376.802552,99.8847013 375.941786,100.287861 375.351613,100.908996 Z" id="Combined-Shape" fill="#EF6435"></path>
            <path d="M352,109 L352,109 C354.209139,109 356,107.209139 356,105 C356,102.790861 354.209139,101 352,101 C349.790861,101 348,102.790861 348,105 C348,107.209139 349.790861,109 352,109 L352,109 Z M352,111 L352,111 C348.686292,111 346,108.313708 346,105 C346,101.686292 348.686292,99 352,99 C355.313708,99 358,101.686292 358,105 C358,108.313708 355.313708,111 352,111 L352,111 Z" id="Oval-76" fill="#0650C2"></path>
            <path d="M378,109 L378,109 C380.209139,109 382,107.209139 382,105 C382,102.790861 380.209139,101 378,101 C375.790861,101 374,102.790861 374,105 C374,107.209139 375.790861,109 378,109 L378,109 Z M378,111 L378,111 C374.686292,111 372,108.313708 372,105 C372,101.686292 374.686292,99 378,99 C381.313708,99 384,101.686292 384,105 C384,108.313708 381.313708,111 378,111 L378,111 Z" id="Oval-76-Copy" fill="#0650C2"></path>
            <path d="M356.010071,81.0213291 L359.987244,81.0213291 L359.987244,88.0153844 C359.987244,88.5676692 360.434959,89.0153844 360.987244,89.0153844 C361.539529,89.0153844 361.987244,88.5676692 361.987244,88.0153844 L361.987244,80.0213291 C361.987244,79.4690444 361.539529,79.0213291 360.987244,79.0213291 L355.010071,79.0213291 C354.457786,79.0213291 354.010071,79.4690444 354.010071,80.0213291 C354.010071,85.1588097 353.514543,86.3097219 351.256397,87.0673178 C350.732794,87.2429838 350.450735,87.8098531 350.626401,88.3334559 C350.802067,88.8570588 351.368937,89.1391173 351.892539,88.9634514 C355.173865,87.8625842 356.010071,86.9204141 356.010071,81.0213291 Z" id="Path-Copy-2" fill="#0650C2"></path>
        </g>
    </g>
</svg>